<svg width="22" height="23" viewBox="0 0 22 23" fill="none" xmlns="http://www.w3.org/2000/svg">
<g filter="url(#filter0_d)">
<path d="M15.2835 0.428571H6.71205C5.29241 0.428571 4.14062 1.58036 4.14062 3V11.5714C4.14062 12.9911 5.29241 14.1429 6.71205 14.1429H11.4621V8.83036H9.67634V6.75893H11.4621V5.23214C11.4621 3.46428 12.5513 2.5 14.1317 2.5C14.8817 2.5 15.5335 2.55357 15.721 2.58036V4.42857L14.6317 4.4375C13.7656 4.4375 13.6049 4.83928 13.6049 5.4375V6.75893H15.6496L15.3817 8.83036H13.6049V14.1429H15.2835C16.7031 14.1429 17.8549 12.9911 17.8549 11.5714V3C17.8549 1.58036 16.7031 0.428571 15.2835 0.428571Z" fill="#D7B399"/>
</g>
<defs>
<filter id="filter0_d" x="0.140625" y="0.428467" width="21.7143" height="21.7143" filterUnits="userSpaceOnUse" color-interpolation-filters="sRGB">
<feFlood flood-opacity="0" result="BackgroundImageFix"/>
<feColorMatrix in="SourceAlpha" type="matrix" values="0 0 0 0 0 0 0 0 0 0 0 0 0 0 0 0 0 0 127 0"/>
<feOffset dy="4"/>
<feGaussianBlur stdDeviation="2"/>
<feColorMatrix type="matrix" values="0 0 0 0 0 0 0 0 0 0 0 0 0 0 0 0 0 0 0.25 0"/>
<feBlend mode="normal" in2="BackgroundImageFix" result="effect1_dropShadow"/>
<feBlend mode="normal" in="SourceGraphic" in2="effect1_dropShadow" result="shape"/>
</filter>
</defs>
</svg>
